#!OML:ASF G:\JayActor3\Patient Classification 1\Patient 1\Session 6\male.ASF
:FULLY-SPECIFIED
:DEGREES
561
root 5.80324 16.1844 -4.59932 358.95 -90.7137 -368.431
lowerback 1.69159 0.529476 0.835522
upperback 14.1357 0.098389 -2.33152
thorax 14.5402 0.0109752 -3.12827
lowerneck -4.73493 -1.33087 -0.223813
upperneck 39.7466 -7.50598 6.93392
head 14.9687 -3.23904 1.72769
rclavicle -5.36719e-015 -2.22639e-014
rhumerus -12.093 1.07523 -48.9103
rradius 29.2434
rwrist 9.81506
rhand -11.973 -21.4038
rfingers 7.12502
rthumb 14.0831 -50.9066
lclavicle -5.36719e-015 -2.22639e-014
lhumerus 8.10331 22.5882 48.3844
lradius 34.4629
lwrist 24.4391
lhand -20.8636 36.1047
lfingers 7.12502
lthumb 5.50606 66.0132
rfemur -15.1225 -2.31597 14.6979
rtibia 55.7651
rfoot -13.456 -8.08891
rtoes -11.655
lfemur 0.796334 10.5967 -15.914
ltibia 25.6135
lfoot -17.8156 0.844347
ltoes -0.289601
562
root 5.79917 16.193 -4.63634 310.063 -90.5845 -319.341
lowerback 1.62384 0.519904 1.16194
upperback 14.113 0.066157 -2.26563
thorax 14.5576 0.0341308 -3.24006
lowerneck -4.53141 -1.33503 -0.177907
upperneck 39.4215 -7.41412 6.9082
head 14.7482 -3.19857 1.72168
rclavicle 1.98785e-016 2.14687e-014
rhumerus -12.2598 -1.81975 -48.8595
rradius 29.3911
rwrist 7.65395
rhand -14.5322 -21.4099
rfingers 7.12502
rthumb 11.6159 -51.068
lclavicle 1.98785e-016 2.14687e-014
lhumerus 8.46358 24.4022 49.2646
lradius 36.0271
lwrist 26.6831
lhand -21.4896 34.8788
lfingers 7.12502
lthumb 4.90165 64.8021
rfemur -14.6632 -2.2013 15.5717
rtibia 54.8574
rfoot -14.3392 -8.70017
rtoes -10.9592
lfemur 0.397076 10.3984 -15.3061
ltibia 25.8858
lfoot -17.938 0.634525
ltoes -0.455321
563
root 5.79472 16.2006 -4.66996 272.883 -90.7783 -281.989
lowerback 1.62535 0.49089 1.41506
upperback 14.0639 0.0160695 -2.23173
thorax 14.4957 0.0408298 -3.34633
lowerneck -4.33057 -1.35042 -0.181442
upperneck 39.0868 -7.33007 6.8839
head 14.5284 -3.16867 1.72382
rclavicle 3.37934e-015 1.19271e-014
rhumerus -12.3734 -4.90342 -48.8157
rradius 29.677
rwrist 5.43956
rhand -16.7865 -21.5263
rfingers 7.12502
rthumb 9.44136 -51.2948
lclavicle 3.37934e-015 1.19271e-014
lhumerus 8.53127 25.6097 49.9836
lradius 37.9643
lwrist 29.6174
lhand -23.2273 34.8363
lfingers 7.12502
lthumb 3.22363 64.7917
rfemur -14.2027 -2.13743 16.2734
rtibia 53.9804
rfoot -15.1505 -9.21607
rtoes -10.3671
lfemur 0.0628071 10.1967 -14.8212
ltibia 26.1001
lfoot -18.0436 0.417775
ltoes -0.727623
564
root 5.79098 16.2083 -4.70057 256.544 -91.1135 -265.445
lowerback 1.65074 0.45991 1.66656
upperback 13.959 -0.0300366 -2.20822
thorax 14.3492 0.049687 -3.45994
lowerneck -4.12095 -1.37025 -0.153913
upperneck 38.763 -7.23235 6.78071
head 14.3085 -3.13792 1.68977
rclavicle -3.97569e-015 -1.03368e-014
rhumerus -12.6423 -7.42588 -48.8254
rradius 30.4429
rwrist 2.61986
rhand -19.0874 -22.1958
rfingers 7.12502
rthumb 7.22076 -52.0526
lclavicle -3.97569e-015 -1.03368e-014
lhumerus 8.49355 26.672 50.6908
lradius 39.9937
lwrist 32.0523
lhand -25.7932 35.5475
lfingers 7.12502
lthumb 0.745514 65.526
rfemur -13.8222 -2.09716 16.9054
rtibia 53.1299
rfoot -15.7959 -9.65509
rtoes -10.0954
lfemur -0.283657 10.0355 -14.3782
ltibia 26.2655
lfoot -18.1556 0.172917
ltoes -0.877598
565
root 5.78395 16.2164 -4.72917 250.882 -91.4159 -259.611
lowerback 1.67686 0.451967 1.85121
upperback 13.8609 -0.0426266 -2.17646
thorax 14.2123 0.0649351 -3.524
lowerneck -3.92446 -1.39665 -0.140211
upperneck 38.3658 -7.11117 6.644
head 14.0561 -3.10082 1.64715
rclavicle 2.38542e-015 5.56597e-015
rhumerus -12.9405 -9.47744 -48.8699
rradius 31.4602
rwrist -0.530623
rhand -21.7946 -23.149
rfingers 7.12502
rthumb 4.60715 -53.0789
lclavicle 2.38542e-015 5.56597e-015
lhumerus 8.38241 27.6896 51.4355
lradius 42.1029
lwrist 34.0818
lhand -29.4213 36.7544
lfingers 7.12502
lthumb -2.75854 66.7163
rfemur -13.4288 -1.92437 17.4595
rtibia 52.3098
rfoot -16.4066 -10.006
rtoes -9.41933
lfemur -0.504327 9.78455 -14.0282
ltibia 26.3313
lfoot -18.3052 0.16845
ltoes -1.19036
566
root 5.78158 16.2278 -4.75304 243.919 -91.7973 -252.382
lowerback 1.72344 0.381165 2.14125
upperback 13.6948 -0.138306 -2.15138
thorax 13.9736 0.0530617 -3.65959
lowerneck -3.72456 -1.41002 -0.149206
upperneck 37.9691 -6.98262 6.53787
head 13.8093 -3.06068 1.62249
rclavicle -3.97569e-015 -1.51076e-014
rhumerus -13.2076 -11.2874 -48.9387
rradius 32.7751
rwrist -4.01202
rhand -24.1226 -24.7313
rfingers 7.12502
rthumb 2.35896 -54.698
lclavicle -3.97569e-015 -1.51076e-014
lhumerus 8.10791 28.3931 52.1102
lradius 44.3938
lwrist 36.348
lhand -29.0588 35.7595
lfingers 7.12502
lthumb -2.40847 65.7257
rfemur -13.1478 -1.97456 17.9703
rtibia 51.5127
rfoot -16.8913 -10.2762
rtoes -9.02784
lfemur -0.827171 9.48021 -13.6964
ltibia 26.3355
lfoot -18.3943 0.174813
ltoes -1.80927
567
root 5.77542 16.2415 -4.77758 240.623 -92.0463 -248.824
lowerback 1.76966 0.36041 2.27126
upperback 13.4941 -0.15258 -2.12873
thorax 13.6972 0.0604831 -3.69875
lowerneck -3.49691 -1.43146 -0.160949
upperneck 37.5359 -6.8622 6.43555
head 13.5442 -3.0245 1.59941
rclavicle 6.75868e-015 0
rhumerus -13.6537 -12.9941 -48.9924
rradius 34.3698
rwrist -7.31639
rhand -26.7435 -25.2286
rfingers 7.12502
rthumb -0.172348 -55.2083
lclavicle 6.75868e-015 0
lhumerus 7.73179 29.0282 52.8019
lradius 46.7593
lwrist 38.0557
lhand -30.4614 36.1728
lfingers 7.12502
lthumb -3.76304 66.1193
rfemur -12.8969 -1.85684 18.3626
rtibia 50.7442
rfoot -17.2846 -10.5741
rtoes -8.66679
lfemur -1.06511 9.20532 -13.4863
ltibia 26.2665
lfoot -18.5159 0.181085
ltoes -2.15731
568
root 5.76938 16.2525 -4.79833 237.505 -92.2798 -245.419
lowerback 1.81496 0.346308 2.42583
upperback 13.2833 -0.157758 -2.10737
thorax 13.4119 0.0748679 -3.75217
lowerneck -3.30063 -1.48412 -0.168502
upperneck 37.0296 -6.78429 6.36173
head 13.2604 -3.00048 1.58127
rclavicle -2.78299e-015 2.38542e-015
rhumerus -14.1173 -14.5416 -49.0295
rradius 36.1299
rwrist -10.7034
rhand -28.8058 -26.3443
rfingers 7.12502
rthumb -2.16417 -56.3131
lclavicle -2.78299e-015 2.38542e-015
lhumerus 7.19838 29.3285 53.398
lradius 49.2695
lwrist 39.8548
lhand -32.1634 36.8363
lfingers 7.12502
lthumb -5.40654 66.7473
rfemur -12.6851 -1.85307 18.6608
rtibia 50.0002
rfoot -17.6268 -10.7223
rtoes -8.25561
lfemur -1.31213 8.94177 -13.334
ltibia 26.1544
lfoot -18.6079 0.223188
ltoes -2.70469
569
root 5.76362 16.2643 -4.8178 236.36 -92.5275 -244.012
lowerback 1.91082 0.357056 2.61779
upperback 13.0691 -0.131827 -2.07511
thorax 13.0963 0.105987 -3.81125
lowerneck -3.20337 -1.52223 -0.149526
upperneck 36.5408 -6.69578 6.29727
head 13.0096 -2.96293 1.56222
rclavicle -3.97569e-016 7.95139e-016
rhumerus -14.623 -15.7357 -49.133
rradius 38.1264
rwrist -14.5019
rhand -30.2764 -26.7738
rfingers 7.12502
rthumb -3.58439 -56.7234
lclavicle -3.97569e-016 7.95139e-016
lhumerus 6.59409 29.4708 54.0029
lradius 51.9315
lwrist 41.9021
lhand -35.0576 37.5141
lfingers 7.12502
lthumb -8.20033 67.335
rfemur -12.4577 -1.78692 18.9998
rtibia 49.2734
rfoot -17.9397 -10.9034
rtoes -8.03676
lfemur -1.51306 8.6706 -13.1407
ltibia 26.0173
lfoot -18.7039 0.299417
ltoes -3.26802
570
root 5.75801 16.2764 -4.83529 234.843 -92.6972 -242.19
lowerback 1.92294 0.346714 2.69817
upperback 12.8714 -0.129892 -2.05398
thorax 12.8502 0.114593 -3.82474
lowerneck -3.14215 -1.54981 -0.120169
upperneck 35.9798 -6.56739 6.19611
head 12.7344 -2.90855 1.5309
rclavicle 1.98785e-015 -5.56597e-015
rhumerus -15.034 -16.7977 -49.2883
rradius 40.4109
rwrist -18.3841
rhand -32.5547 -29.5642
rfingers 7.12502
rthumb -5.7843 -59.4653
lclavicle 1.98785e-015 -5.56597e-015
lhumerus 6.25503 30.0439 54.803
lradius 54.2301
lwrist 43.2314
lhand -33.787 37.0941
lfingers 7.12502
lthumb -6.97397 66.9592
rfemur -12.2911 -1.77989 19.2103
rtibia 48.5557
rfoot -18.1919 -10.9978
rtoes -7.83756
lfemur -1.75599 8.43478 -13.0478
ltibia 25.8975
lfoot -18.8215 0.296753
ltoes -3.5523
571
root 5.7526 16.2865 -4.85616 234.91 -92.8826 -241.97
lowerback 1.99365 0.344063 2.80772
upperback 12.6544 -0.116871 -2.0377
thorax 12.5478 0.130301 -3.85782
lowerneck -3.09418 -1.56477 -0.14438
upperneck 35.4118 -6.463 6.22683
head 12.4724 -2.858 1.5572
rclavicle -9.14409e-015 2.38542e-015
rhumerus -15.2926 -18.339 -49.461
rradius 42.1853
rwrist -20.8576
rhand -32.379 -28.216
rfingers 7.12502
rthumb -5.61468 -58.1216
lclavicle -9.14409e-015 2.38542e-015
lhumerus 5.63568 30.2275 55.2918
lradius 56.7203
lwrist 44.8812
lhand -34.5238 37.4077
lfingers 7.12502
lthumb -7.68518 67.2481
rfemur -12.1271 -1.61285 19.5271
rtibia 47.8558
rfoot -18.6181 -11.1174
rtoes -7.44672
lfemur -1.98605 8.30734 -12.8537
ltibia 25.7712
lfoot -18.9493 0.1597
ltoes -3.91238
572
root 5.74896 16.2939 -4.87257 235.01 -93.0618 -241.798
lowerback 2.1255 0.302857 3.016
upperback 12.4181 -0.154986 -2.0656
thorax 12.1845 0.132485 -3.99803
lowerneck -3.09075 -1.54704 -0.244251
upperneck 34.8634 -6.33045 6.32842
head 12.2357 -2.79606 1.626
rclavicle 1.59028e-015 8.74653e-015
rhumerus -15.6926 -19.0265 -49.8199
rradius 44.7946
rwrist -24.9391
rhand -33.6492 -29.785
rfingers 7.12502
rthumb -6.84091 -59.6545
lclavicle 1.59028e-015 8.74653e-015
lhumerus 4.88093 30.2473 55.6506
lradius 59.2963
lwrist 46.9198
lhand -36.0185 37.7236
lfingers 7.12502
lthumb -9.12766 67.5061
rfemur -11.9752 -1.64858 19.7832
rtibia 47.1595
rfoot -18.8204 -11.2339
rtoes -7.41551
lfemur -2.17994 8.16468 -12.6788
ltibia 25.622
lfoot -19.1555 -0.122362
ltoes -4.24069
573
root 5.746 16.3021 -4.89054 233.592 -93.0994 -240.062
lowerback 2.17029 0.243699 3.01546
upperback 12.1798 -0.205012 -2.13507
thorax 11.869 0.110086 -4.06843
lowerneck -3.05326 -1.49963 -0.284261
upperneck 34.284 -6.1332 6.3452
head 11.974 -2.70803 1.65842
rclavicle -3.97569e-015 -7.95139e-016
rhumerus -16.0093 -19.6469 -50.2406
rradius 47.2291
rwrist -28.1284
rhand -34.6557 -30.4455
rfingers 7.12502
rthumb -7.81247 -60.2812
lclavicle -3.97569e-015 -7.95139e-016
lhumerus 4.09166 30.4055 55.9576
lradius 61.7821
lwrist 48.4934
lhand -36.8035 38.1898
lfingers 7.12502
lthumb -9.88506 67.9377
rfemur -11.8837 -1.681 19.8561
rtibia 46.5022
rfoot -19.0719 -11.2773
rtoes -6.6516
lfemur -2.42739 7.99742 -12.7014
ltibia 25.4619
lfoot -19.3078 -0.211648
ltoes -4.90132
574
root 5.74234 16.312 -4.90578 232.542 -93.18 -238.736
lowerback 2.24165 0.168566 3.10641
upperback 11.9387 -0.28175 -2.19278
thorax 11.5348 0.0821435 -4.1786
lowerneck -3.05312 -1.45087 -0.424913
upperneck 33.7459 -5.95735 6.44404
head 11.7475 -2.63182 1.73632
rclavicle 1.11319e-014 1.11319e-014
rhumerus -16.3961 -20.1845 -50.6443
rradius 49.6745
rwrist -30.5529
rhand -35.1872 -30.8564
rfingers 7.12502
rthumb -8.32544 -60.6723
lclavicle 1.11319e-014 1.11319e-014
lhumerus 2.86931 30.2131 55.9137
lradius 64.4728
lwrist 50.1849
lhand -36.83 38.6012
lfingers 7.12502
lthumb -9.91065 68.3479
rfemur -11.7472 -1.77408 19.9527
rtibia 45.8439
rfoot -19.3403 -11.292
rtoes -5.35868
lfemur -2.61797 7.87928 -12.658
ltibia 25.2887
lfoot -19.5038 -0.52197
ltoes -5.43689
